<?xml version="1.0" encoding="UTF-8"?>
<!-- Generator: visioncortex VTracer 0.6.4 -->
<svg version="1.1" xmlns="http://www.w3.org/2000/svg" width="500" height="260">
<path d="M0 0 C165 0 330 0 500 0 C500 85.8 500 171.6 500 260 C335 260 170 260 0 260 C0 174.2 0 88.4 0 0 Z " fill="#FDFEFD" transform="translate(0,0)"/>
<path d="M0 0 C3.44 -0 6.88 -0.02 10.31 -0.04 C35.65 -0.1 62.29 0.62 86.89 7.38 C89.68 8.15 92.49 8.81 95.31 9.46 C116 14.35 136.08 21.81 152.8 35.19 C153.78 35.92 153.78 35.92 154.78 36.67 C162.43 42.68 168.57 51.69 170.8 61.19 C172.57 76.13 167.7 88.35 158.8 100.19 C108.41 161.32 10.31 179.24 -64.11 186.82 C-67.11 187.13 -67.11 187.13 -69.67 187.7 C-83.91 190.45 -99.4 189.4 -113.83 189.43 C-117.6 189.44 -121.36 189.47 -125.12 189.5 C-141.37 189.57 -157.12 188.41 -173.2 186.19 C-174.57 186.01 -175.94 185.83 -177.31 185.66 C-209.22 181.53 -250.64 172.66 -272.2 146.19 C-279.82 135.37 -282.65 125.49 -281.2 112.19 C-280 107.89 -278.29 104.11 -276.2 100.19 C-275.77 99.35 -275.35 98.51 -274.92 97.64 C-266.98 83.13 -251.68 69.04 -237.2 61.19 C-236.54 61.19 -235.88 61.19 -235.2 61.19 C-233.41 75.18 -233.41 75.18 -236.25 79.94 C-238.11 82.1 -240.18 83.93 -242.34 85.78 C-250.16 92.49 -256.3 102.66 -257.53 113.01 C-257.69 124.8 -254.2 133.54 -246.2 142.19 C-236.45 152.07 -223.96 157.38 -211.2 162.19 C-210.17 162.58 -209.13 162.97 -208.07 163.37 C-190.45 169.64 -171.66 171.86 -153.2 174.19 C-152.53 174.27 -151.86 174.36 -151.18 174.45 C-145.24 175.19 -139.37 175.36 -133.39 175.39 C-131.85 175.4 -131.85 175.4 -130.29 175.41 C-126.97 175.43 -123.64 175.43 -120.32 175.44 C-119.18 175.44 -118.05 175.44 -116.87 175.44 C-85.14 175.42 -52.08 174 -21.24 165.96 C-18.1 165.16 -14.95 164.46 -11.79 163.79 C0.86 161.1 13.21 158.15 25.45 153.98 C27.99 153.12 30.55 152.31 33.11 151.5 C43.08 148.31 52.58 144.75 61.95 140.09 C63.89 139.14 65.86 138.26 67.83 137.39 C83.36 130.48 98.21 121.67 110.8 110.19 C111.75 109.33 112.69 108.48 113.66 107.61 C123.8 98.01 131.52 86.53 132.24 72.25 C131.83 61.8 127.02 53.5 119.8 46.19 C79.92 10.97 12.61 11.87 -37.2 14.19 C-52.27 15.14 -67.25 17.06 -82.2 19.19 C-83.99 19.43 -83.99 19.43 -85.83 19.69 C-92.34 20.61 -98.77 21.79 -105.2 23.19 C-106.38 23.44 -107.57 23.7 -108.8 23.96 C-124.8 27.45 -140.48 31.67 -156.01 36.87 C-156.69 37.1 -157.37 37.33 -158.07 37.56 C-172.02 42.26 -185.22 48.06 -198.43 54.52 C-199.9 55.23 -199.9 55.23 -201.39 55.95 C-202.27 56.38 -203.15 56.81 -204.05 57.25 C-206.2 58.19 -206.2 58.19 -208.2 58.19 C-208.2 53.9 -208.2 49.61 -208.2 45.19 C-197.61 39.56 -186.95 34.99 -175.64 31.04 C-173.23 30.2 -170.82 29.32 -168.42 28.44 C-149.85 21.68 -130.86 16.64 -111.57 12.37 C-110.91 12.23 -110.25 12.08 -109.58 11.93 C-101.33 10.1 -93.11 8.69 -84.73 7.64 C-81.57 7.23 -78.45 6.74 -75.32 6.19 C-68.4 5.01 -61.45 4.19 -54.48 3.38 C-52.27 3.12 -50.05 2.86 -47.84 2.6 C-43.63 2.1 -39.41 1.64 -35.2 1.19 C-34.19 1.07 -33.18 0.96 -32.14 0.85 C-21.46 -0.15 -10.72 -0 0 0 Z " fill="#2EB44D" transform="translate(305.196533203125,52.814697265625)"/>
<path d="M0 0 C14.85 0 29.7 0 45 0 C45 3.3 45 6.6 45 10 C33.78 10 22.56 10 11 10 C11 14.29 11 18.58 11 23 C18.92 23 26.84 23 35 23 C35 26.63 35 30.26 35 34 C27.08 34 19.16 34 11 34 C11 38.62 11 43.24 11 48 C22.55 48 34.1 48 46 48 C46 51.63 46 55.26 46 59 C30.82 59 15.64 59 0 59 C0 50.75 0 42.5 0 34 C-2.31 34 -4.62 34 -7 34 C-7 30.37 -7 26.74 -7 23 C-4.69 23 -2.38 23 0 23 C0 15.41 0 7.82 0 0 Z " fill="#31B44F" transform="translate(225,105)"/>
<path d="M0 0 C3 2.06 3 2.06 3.87 3.99 C4 6.06 4 6.06 2.79 7.77 C2.22 8.28 1.65 8.79 1.06 9.31 C0.5 9.83 -0.07 10.35 -0.65 10.89 C-1.32 11.47 -1.32 11.47 -2 12.06 C-4.26 10.98 -6.37 9.83 -8.5 8.5 C-13.63 5.55 -19.2 5.41 -25 6.06 C-28.23 7.39 -28.23 7.39 -30 10.06 C-30.07 12.39 -30.08 14.73 -30 17.06 C-28.39 17.38 -26.78 17.71 -25.17 18.03 C-23.8 18.3 -22.42 18.58 -21.05 18.86 C-18.06 19.46 -15.07 20.05 -12.06 20.57 C-5.09 21.78 0.64 23.46 5.5 28.81 C7.97 34.15 7.54 38.16 6 43.62 C2.52 49.61 -2.05 53.69 -8.62 56 C-19.18 58.56 -27.95 57.95 -37.48 52.67 C-39.74 51.23 -41.89 49.72 -44 48.06 C-43.53 43.81 -41.23 41.69 -38 39.06 C-34.82 39.39 -33.03 40.7 -30.56 42.62 C-25.08 46.17 -19.31 45.84 -13 45.06 C-10.24 44.22 -8.07 43.14 -6 41.06 C-5.96 39.06 -5.96 37.06 -6 35.06 C-10.61 32.65 -14.7 31.72 -19.88 31.06 C-28.95 29.85 -35.81 28.87 -41.74 21.38 C-43.96 17.29 -43.94 13.55 -43 9.06 C-40.32 3.61 -36.33 -0.5 -30.74 -2.91 C-19.67 -6.63 -10.24 -5.28 0 0 Z " fill="#31B550" transform="translate(321,107.9375)"/>
<path d="M0 0 C1.93 1.61 1.93 1.61 3.93 4.61 C1.29 6.92 -1.35 9.23 -4.07 11.61 C-6.31 10.34 -8.56 9.07 -10.8 7.8 C-16.31 4.9 -22.15 4.75 -28.07 6.48 C-30.22 7.45 -30.22 7.45 -31.07 9.61 C-31.11 11.61 -31.11 13.61 -31.07 15.61 C-28.15 17.22 -25.58 18.02 -22.29 18.57 C-21.39 18.73 -20.48 18.89 -19.54 19.06 C-17.65 19.38 -15.76 19.7 -13.86 20.02 C-6.94 21.25 -0.53 22.73 4.02 28.6 C6.05 33.04 5.63 37.88 4.93 42.61 C2.36 48.05 -1.72 52.06 -7.18 54.58 C-15.56 57.52 -25.61 58.42 -33.94 54.98 C-38.26 52.71 -42.53 49.98 -46.07 46.61 C-46.07 45.95 -46.07 45.29 -46.07 44.61 C-44.54 43.1 -44.54 43.1 -42.57 41.48 C-41.92 40.94 -41.27 40.4 -40.6 39.85 C-40.09 39.44 -39.59 39.03 -39.07 38.61 C-36.03 39.71 -33.72 40.85 -31.07 42.73 C-25.85 45.79 -19.9 45.21 -14.07 44.61 C-10.35 43.76 -10.35 43.76 -8.07 41.61 C-7.09 38.52 -7.09 38.52 -7.07 35.61 C-10.14 32.98 -12.54 32.06 -16.5 31.36 C-17.54 31.16 -18.58 30.96 -19.66 30.76 C-21.84 30.37 -24.02 29.98 -26.2 29.59 C-33.23 28.25 -38.02 26.96 -42.94 21.54 C-44.91 16.39 -45.33 10.65 -43.19 5.48 C-40.03 0.65 -35.66 -2.32 -30.11 -3.98 C-19.86 -6.07 -8.92 -5.63 0 0 Z " fill="#30B54F" transform="translate(145.06640625,108.39453125)"/>
<path d="M0 0 C3.23 2.46 6.16 5.11 9 8 C5.87 11.39 3.43 13.61 -1 15 C-1.89 14.22 -2.77 13.43 -3.69 12.62 C-8.53 8.65 -12.57 7.59 -18.79 7.75 C-25.63 8.52 -29.58 13.17 -33.81 18.12 C-35.96 23.32 -35.91 28.94 -34.31 34.32 C-32.13 39.12 -29.32 42.03 -25 45 C-19.32 46.85 -12.62 46.95 -7.06 44.69 C-4.05 43.22 -4.05 43.22 -2.31 41.25 C-1.88 40.84 -1.45 40.43 -1 40 C2.93 40.14 5.89 42.81 9 45 C6.64 50.5 2.16 53.4 -3.07 56.05 C-11.3 59.25 -21.54 59.46 -29.8 56.24 C-36.95 52.21 -42.58 46.41 -46 39 C-46.35 38.24 -46.71 37.47 -47.07 36.68 C-49.67 29.17 -48.7 20.48 -45.38 13.35 C-40.3 4.72 -33.61 -0.67 -24.02 -3.61 C-15.59 -5.25 -7.55 -4.04 0 0 Z " fill="#31B550" transform="translate(205,107)"/>
<path d="M0 0 C15.18 0 30.36 0 46 0 C46 3.3 46 6.6 46 10 C40.06 10 34.12 10 28 10 C28 26.17 28 42.34 28 59 C24.37 59 20.74 59 17 59 C17 42.83 17 26.66 17 10 C11.39 10 5.78 10 0 10 C0 6.7 0 3.4 0 0 Z " fill="#30B34C" transform="translate(333,105)"/>
<path d="M0 0 C3.63 0 7.26 0 11 0 C11 19.47 11 38.94 11 59 C7.37 59 3.74 59 0 59 C0 39.53 0 20.06 0 0 Z " fill="#2EB44E" transform="translate(78,105)"/>
<path d="M0 0 C11.55 0 23.1 0 35 0 C37 5 37 5 37 16 C24.13 16 11.26 16 -2 16 C-1 2 -1 2 0 0 Z " fill="#33B550" transform="translate(66,37)"/>
<path d="M0 0 C12.87 0 25.74 0 39 0 C39 9 39 9 38 14 C26.12 14 14.24 14 2 14 C0 6 0 6 0 0 Z " fill="#2CB34B" transform="translate(64,58)"/>
<path d="M0 0 C10.23 0 20.46 0 31 0 C29.92 6.49 28.4 9.36 24 14 C20.96 16.03 18.67 16.85 15.12 17.62 C9.61 16.52 5.85 12.54 2.6 8.08 C0.89 5.24 0 3.35 0 0 Z " fill="#35B652" transform="translate(68,76)"/>
<path d="M0 0 C5.35 2.62 9.04 6.88 12 12 C12 12.99 12 13.98 12 15 C2.43 15 -7.14 15 -17 15 C-18 11 -18 11 -16.96 8.96 C-12.03 2.67 -8.53 -1.05 0 0 Z " fill="#36B653" transform="translate(87,18)"/>
<path d="M0 0 C2.22 2.4 3.6 5.07 5 8 C5.65 9.3 5.65 9.3 6.31 10.62 C7 13 7 13 7 19 C1.39 19 -4.22 19 -10 19 C-10.66 13.39 -11.32 7.78 -12 2 C-4.84 -0.86 -4.84 -0.86 0 0 Z " fill="#34B651" transform="translate(118,34)"/>
<path d="M0 0 C2 0.3 2 0.3 4.44 0.88 C5.24 1.06 6.04 1.24 6.87 1.43 C9 2 9 2 11 3 C10.86 5.65 10.71 8.29 10.56 10.94 C10.52 11.69 10.48 12.45 10.44 13.22 C10.11 18.89 10.11 18.89 9 20 C6.3 20.07 3.63 20.09 0.94 20.06 C0.18 20.06 -0.58 20.05 -1.36 20.05 C-3.24 20.04 -5.12 20.02 -7 20 C-7.32 14.64 -6.59 11.35 -4.06 6.62 C-3.52 5.59 -2.97 4.55 -2.41 3.48 C-1 1 -1 1 0 0 Z " fill="#33B652" transform="translate(50,33)"/>
<path d="M0 0 C5.61 0 11.22 0 17 0 C17 5.73 16.63 7.5 14.12 12.31 C13.59 13.36 13.06 14.41 12.51 15.49 C11 18 11 18 9 19 C6.62 18.66 6.62 18.66 3.88 18.06 C2.96 17.87 2.05 17.67 1.12 17.47 C0.42 17.32 -0.28 17.16 -1 17 C-2.58 11.05 -1.12 5.97 0 0 Z " fill="#3AB755" transform="translate(108,57)"/>
<path d="M0 0 C5.61 0 11.22 0 17 0 C17.49 7.92 17.49 7.92 18 16 C11.56 16.5 11.56 16.5 5 17 C0 6.75 0 6.75 0 0 Z " fill="#32B550" transform="translate(43,58)"/>
<path d="M0 0 C0 0.66 0 1.32 0 2 C0.93 2 1.86 2 2.81 2 C4.88 2 6.94 2 9 2 C8.01 2.5 8.01 2.5 7 3 C7 3.66 7 4.32 7 5 C10.04 3.33 10.04 3.33 11 1 C13.65 0.41 16.29 0.26 19 0 C19.33 0.66 19.66 1.32 20 2 C20.66 1.67 21.32 1.34 22 1 C24 0.96 26 0.96 28 1 C28.5 3.47 28.5 3.47 29 6 C21.6 6.91 14.32 7.12 6.88 7.06 C5.3 7.06 5.3 7.06 3.69 7.05 C1.12 7.04 -1.44 7.02 -4 7 C-4.33 5.35 -4.66 3.7 -5 2 C-2 0 -2 0 0 0 Z " fill="#A1DDAF" transform="translate(237,175)"/>
<path d="M0 0 C2.47 0.5 2.47 0.5 5 1 C4.01 1.33 3.02 1.66 2 2 C3.67 1.72 3.67 1.72 5.38 1.44 C9 1 9 1 11 2 C12.32 2 13.64 2 15 2 C15 1.34 15 0.68 15 0 C15.66 0 16.32 0 17 0 C17 0.66 17 1.32 17 2 C18.09 1.79 19.19 1.59 20.31 1.38 C24 1 24 1 27 3 C27.66 2.67 28.32 2.34 29 2 C28.4 4.02 27.73 6.02 27 8 C26.01 8.5 26.01 8.5 25 9 C25 7.68 25 6.36 25 5 C24.34 5.66 23.68 6.32 23 7 C20.5 7.23 20.5 7.23 17.56 7.19 C16.59 7.18 15.63 7.17 14.63 7.17 C12 7 12 7 9 6 C9 5.01 9 4.02 9 3 C8.34 3 7.68 3 7 3 C6.67 3.99 6.34 4.98 6 6 C4.35 6.33 2.7 6.66 1 7 C0.67 6.34 0.34 5.68 0 5 C0.99 5 1.98 5 3 5 C2.01 4.34 1.02 3.68 0 3 C0 2.01 0 1.02 0 0 Z " fill="#90D7A0" transform="translate(130,175)"/>
<path d="M0 0 C0.81 0 1.61 0.01 2.44 0.01 C3.7 0.02 3.7 0.02 4.99 0.04 C6.27 0.04 6.27 0.04 7.57 0.05 C9.67 0.06 11.77 0.08 13.87 0.1 C13.87 2.08 13.87 4.06 13.87 6.1 C11.89 6.1 9.91 6.1 7.87 6.1 C7.21 4.78 6.55 3.46 5.87 2.1 C5.87 3.42 5.87 4.74 5.87 6.1 C4.01 6.07 4.01 6.07 2.12 6.04 C-0.26 6.02 -2.08 6.08 -4.38 6.72 C-6.83 7.25 -8.05 6.36 -10.13 5.1 C-10.13 4.11 -10.13 3.12 -10.13 2.1 C-10.79 2.1 -11.45 2.1 -12.13 2.1 C-12.46 3.09 -12.79 4.08 -13.13 5.1 C-13.13 3.78 -13.13 2.46 -13.13 1.1 C-12.02 1.12 -10.91 1.14 -9.76 1.16 C-6.18 1.1 -3.58 -0.03 0 0 Z " fill="#9CDBAB" transform="translate(197.1328125,175.90234375)"/>
<path d="M0 0 C0.66 0 1.32 0 2 0 C2.33 0.66 2.66 1.32 3 2 C3.99 2 4.98 2 6 2 C9.67 2 13.33 2 17 2 C16.01 4.31 15.02 6.62 14 9 C13.67 7.68 13.34 6.36 13 5 C12.34 6.32 11.68 7.64 11 9 C10.01 9 9.02 9 8 9 C8 8.34 8 7.68 8 7 C8.66 7 9.32 7 10 7 C10.33 5.68 10.66 4.36 11 3 C10.34 3 9.68 3 9 3 C8.67 3.99 8.34 4.98 8 6 C2 7 -4.12 7.96 -10 6 C-10 4.68 -10 3.36 -10 2 C-2.25 0.88 -2.25 0.88 0 2 C0 1.34 0 0.68 0 0 Z " fill="#98DAA7" transform="translate(353,175)"/>
<path d="M0 0 C2.31 0.66 4.62 1.32 7 2 C7 2.66 7 3.32 7 4 C7.99 4 8.98 4 10 4 C10.33 2.68 10.66 1.36 11 0 C12.03 0.19 13.06 0.37 14.12 0.56 C17.8 0.98 20.4 0.63 24 0 C26.69 0.44 26.69 0.44 29 1 C29.99 1 30.98 1 32 1 C31.67 1.66 31.34 2.32 31 3 C31.5 3.5 31.5 3.5 32 4 C32 4.99 32 5.98 32 7 C31.01 7 30.02 7 29 7 C28.34 6.34 27.68 5.68 27 5 C24.56 4.76 24.56 4.76 21.88 4.88 C20.51 4.9 20.51 4.9 19.12 4.93 C18.42 4.95 17.72 4.98 17 5 C17 4.34 17 3.68 17 3 C16.34 3 15.68 3 15 3 C15 3.66 15 4.32 15 5 C4.09 6.45 4.09 6.45 -1 5 C-0.67 3.35 -0.34 1.7 0 0 Z " fill="#9DDCAB" transform="translate(184,192)"/>
<path d="M0 0 C0.66 0 1.32 0 2 0 C2 0.66 2 1.32 2 2 C1.34 2 0.68 2 0 2 C0 2.66 0 3.32 0 4 C1.32 4 2.64 4 4 4 C4.33 3.01 4.66 2.02 5 1 C5.99 0.67 6.98 0.34 8 0 C8.66 0.33 9.32 0.66 10 1 C12.1 0.6 12.1 0.6 14 0 C14 0.66 14 1.32 14 2 C14.56 1.67 15.11 1.34 15.69 1 C18.32 -0.14 20.16 -0.23 23 0 C24 1 24 1 24 6 C16.08 6 8.16 6 0 6 C-0.33 4.35 -0.66 2.7 -1 1 C-0.67 0.67 -0.34 0.34 0 0 Z " fill="#ABE1B8" transform="translate(279,176)"/>
<path d="M0 0 C1.56 0.01 1.56 0.01 3.16 0.02 C4.28 0.02 5.41 0.02 6.57 0.03 C7.75 0.03 8.93 0.04 10.15 0.05 C11.34 0.06 12.53 0.06 13.75 0.06 C16.7 0.08 19.65 0.09 22.59 0.11 C22.92 1.1 23.25 2.09 23.59 3.11 C24.25 3.11 24.91 3.11 25.59 3.11 C25.59 3.77 25.59 4.43 25.59 5.11 C22.95 4.78 20.31 4.45 17.59 4.11 C17.59 3.45 17.59 2.79 17.59 2.11 C16.93 2.77 16.27 3.43 15.59 4.11 C12.73 4.53 12.73 4.53 9.28 4.74 C8.15 4.81 7.02 4.89 5.85 4.97 C3.09 5.09 0.35 5.14 -2.41 5.11 C-2.97 3.18 -2.97 3.18 -3.41 1.11 C-2.41 0.11 -2.41 0.11 0 0 Z " fill="#9BDBAA" transform="translate(155.408447265625,192.886474609375)"/>
<path d="M0 0 C4.41 0.6 8.31 0.14 12.69 -0.5 C12.69 1.15 12.69 2.8 12.69 4.5 C10.65 4.7 8.6 4.88 6.56 5.06 C4.86 5.22 4.86 5.22 3.12 5.38 C-0.22 5.5 -3.05 5.11 -6.31 4.5 C-7.63 4.5 -8.95 4.5 -10.31 4.5 C-9.98 3.18 -9.65 1.86 -9.31 0.5 C-5.96 -0.24 -3.42 -0.52 0 0 Z " fill="#B9E5C3" transform="translate(266.3125,192.5)"/>
<path d="M0 0 C1.8 2.12 1.8 2.12 3.31 4.88 C3.82 5.78 4.34 6.68 4.86 7.62 C6 10 6 10 6 12 C-0.68 10.72 -4.87 7.35 -10 3 C-9 1 -9 1 -7.25 0.38 C-4.65 -0.06 -2.63 -0.34 0 0 Z " fill="#3DB95A" transform="translate(63,78)"/>
<path d="M0 0 C0.58 0.16 1.16 0.33 1.75 0.5 C4.45 1.1 6.31 0.55 9 0 C9.99 0.33 10.98 0.66 12 1 C13.68 0.71 15.34 0.38 17 0 C17.66 0 18.32 0 19 0 C19 1.98 19 3.96 19 6 C15.04 6 11.08 6 7 6 C7 4.68 7 3.36 7 2 C6.34 2 5.68 2 5 2 C4.67 2.99 4.34 3.98 4 5 C1.94 5.69 1.94 5.69 0 6 C-0.38 4.34 -0.71 2.68 -1 1 C-0.67 0.67 -0.34 0.34 0 0 Z " fill="#97DAA7" transform="translate(88,176)"/>
<path d="M0 0 C0.33 0.66 0.66 1.32 1 2 C2.65 2 4.3 2 6 2 C6 1.34 6 0.68 6 0 C6.66 0 7.32 0 8 0 C8 0.66 8 1.32 8 2 C11.96 2 15.92 2 20 2 C19.01 3.32 18.02 4.64 17 6 C16.34 6 15.68 6 15 6 C14.67 5.34 14.34 4.68 14 4 C13.67 4.52 13.34 5.03 13 5.56 C11 7 11 7 7.25 6.75 C5.83 6.51 4.41 6.26 3 6 C1.67 5.81 0.33 5.62 -1 5.44 C-1.99 5.29 -2.98 5.15 -4 5 C-4.33 5.99 -4.66 6.98 -5 8 C-5.66 7.67 -6.32 7.34 -7 7 C-7 5.35 -7 3.7 -7 2 C-4.69 2.33 -2.38 2.66 0 3 C0 2.01 0 1.02 0 0 Z " fill="#A1DDAF" transform="translate(224,191)"/>
<path d="M0 0 C5.55 -0.25 5.55 -0.25 8 1.12 C11.03 2.45 13.01 1.11 16 0 C16.66 0.33 17.32 0.66 18 1 C18 2.65 18 4.3 18 6 C12.59 6.82 7.46 7 2 7 C2 5.02 2 3.04 2 1 C1.34 0.67 0.68 0.34 0 0 Z " fill="#8DD69E" transform="translate(324,175)"/>
<path d="M0 0 C7.75 0.75 7.75 0.75 10 3 C4.87 7.35 0.68 10.72 -6 12 C-4.02 8.04 -2.04 4.08 0 0 Z " fill="#36B754" transform="translate(104,78)"/>
<path d="M0 0 C0 0.66 0 1.32 0 2 C0.93 2 1.86 2 2.81 2 C4.88 2 6.94 2 9 2 C8.01 2.5 8.01 2.5 7 3 C7 3.66 7 4.32 7 5 C10.04 3.33 10.04 3.33 11 1 C11.99 1.33 12.98 1.66 14 2 C13.67 3.32 13.34 4.64 13 6 C7.28 6.83 1.78 7.12 -4 7 C-4.33 5.35 -4.66 3.7 -5 2 C-2 0 -2 0 0 0 Z " fill="#97D9A6" transform="translate(237,175)"/>
<path d="M0 0 C0.66 0.33 1.32 0.66 2 1 C0.27 4.56 -1.51 7.91 -4 11 C-7.73 11.68 -9.63 11.69 -13 10 C-11.51 5.93 -9.25 4.68 -5.5 2.69 C-4.52 2.16 -3.54 1.62 -2.53 1.07 C-1.28 0.54 -1.28 0.54 0 0 Z " fill="#3BB958" transform="translate(68,20)"/>
<path d="M0 0 C5.35 2.23 10.39 4.45 15 8 C15 8.66 15 9.32 15 10 C10.55 10.5 10.55 10.5 6 11 C4.99 9.55 4 8.09 3 6.62 C2.16 5.41 2.16 5.41 1.31 4.16 C0 2 0 2 0 0 Z " fill="#3AB858" transform="translate(98,20)"/>
<path d="M0 0 C0.66 0 1.32 0 2 0 C2 1.98 2 3.96 2 6 C1.67 5.01 1.34 4.02 1 3 C0.34 3 -0.32 3 -1 3 C-1.33 3.99 -1.66 4.98 -2 6 C-5.3 6.33 -8.6 6.66 -12 7 C-12 4 -12 4 -11 1 C-7.67 1 -4.33 1 -1 1 C-0.67 0.67 -0.34 0.34 0 0 Z " fill="#A2DEB0" transform="translate(319,175)"/>
<path d="M0 0 C0.72 0.14 1.44 0.29 2.19 0.44 C3.58 0.72 3.58 0.72 5 1 C6.67 1.33 8.33 1.67 10 2 C9.67 3.32 9.34 4.64 9 6 C9 5.01 9 4.02 9 3 C8.34 3 7.68 3 7 3 C6.67 3.99 6.34 4.98 6 6 C3.62 6.62 3.62 6.62 1 7 C0.34 6.34 -0.32 5.68 -1 5 C-0.62 2.38 -0.62 2.38 0 0 Z " fill="#ABE1B8" transform="translate(173,175)"/>
<path d="M0 0 C1.24 0.02 1.24 0.02 2.5 0.04 C3.32 0.04 4.15 0.05 5 0.06 C5.64 0.07 6.28 0.09 6.93 0.1 C6.93 1.09 6.93 2.08 6.93 3.1 C7.92 3.1 8.91 3.1 9.93 3.1 C9.93 3.76 9.93 4.42 9.93 5.1 C5.97 5.1 2.01 5.1 -2.07 5.1 C-2.4 3.78 -2.73 2.46 -3.07 1.1 C-2.07 0.1 -2.07 0.1 0 0 Z " fill="#B3E4BF" transform="translate(155.06640625,192.90234375)"/>
<path d="M0 0 C1.45 0.03 1.45 0.03 2.94 0.06 C2.94 2.04 2.94 4.02 2.94 6.06 C-0.03 6.06 -3 6.06 -6.06 6.06 C-3.76 0.08 -3.76 0.08 0 0 Z " fill="#AAE0B7" transform="translate(104.0625,175.9375)"/>
<path d="M0 0 C0 0.33 0 0.66 0 1 C-0.85 1.04 -1.69 1.07 -2.56 1.11 C-10.22 1.56 -16.12 2.56 -23 6 C-23.66 5.34 -24.32 4.68 -25 4 C-16.12 -1.66 -10.19 -2.73 0 0 Z " fill="#C6EACE" transform="translate(130,103)"/>
<path d="M0 0 C0.99 0.33 1.98 0.66 3 1 C2.67 2.65 2.34 4.3 2 6 C1.01 6 0.02 6 -1 6 C-1.33 5.34 -1.66 4.68 -2 4 C-2.62 4.16 -3.24 4.33 -3.88 4.5 C-6 5 -6 5 -8 5 C-8 3.68 -8 2.36 -8 1 C-6.87 1.02 -5.73 1.04 -4.56 1.06 C-1.18 1.42 -1.18 1.42 0 0 Z " fill="#8DD69E" transform="translate(220,176)"/>
<path d="M0 0 C0.66 0 1.32 0 2 0 C2 2.31 2 4.62 2 7 C-0.31 7 -2.62 7 -5 7 C-5 5.35 -5 3.7 -5 2 C-4.01 1.67 -3.02 1.34 -2 1 C-1.34 1.33 -0.68 1.66 0 2 C0 1.34 0 0.68 0 0 Z " fill="#AAE0B7" transform="translate(125,175)"/>
<path d="M0 0 C2.31 0.66 4.62 1.32 7 2 C7 2.66 7 3.32 7 4 C7.99 4.33 8.98 4.66 10 5 C6.59 5.78 3.49 6.1 0 6 C-0.38 4.34 -0.71 2.68 -1 1 C-0.67 0.67 -0.34 0.34 0 0 Z " fill="#A4DEB2" transform="translate(184,192)"/>
<path d="M0 0 C-0.33 1.65 -0.66 3.3 -1 5 C-7.75 6.12 -7.75 6.12 -10 5 C-10 4.01 -10 3.02 -10 2 C-8.71 1.66 -7.42 1.33 -6.12 1 C-5.41 0.81 -4.69 0.63 -3.95 0.44 C-2 0 -2 0 0 0 Z " fill="#97DAA6" transform="translate(254,192)"/>
<path d="M0 0 C0 2.31 0 4.62 0 7 C-2.97 7 -5.94 7 -9 7 C-8.67 6.34 -8.34 5.68 -8 5 C-7.34 5 -6.68 5 -6 5 C-6 3.68 -6 2.36 -6 1 C-4 0 -4 0 0 0 Z " fill="#C0E8C9" transform="translate(256,175)"/>
<path d="M0 0 C0.66 0.66 1.32 1.32 2 2 C1.34 2 0.68 2 0 2 C0 3.65 0 5.3 0 7 C-1.98 6.34 -3.96 5.68 -6 5 C-6 4.01 -6 3.02 -6 2 C-6.66 2 -7.32 2 -8 2 C-8.33 2.99 -8.66 3.98 -9 5 C-9 3.68 -9 2.36 -9 1 C-7.89 1.02 -6.77 1.04 -5.62 1.06 C-2.17 1.26 -2.17 1.26 0 0 Z " fill="#8FD7A0" transform="translate(193,176)"/>
<path d="M0 0 C3.3 0 6.6 0 10 0 C9.67 1.65 9.34 3.3 9 5 C8.01 4.67 7.02 4.34 6 4 C6 3.34 6 2.68 6 2 C5.67 2.66 5.34 3.32 5 4 C3.35 4 1.7 4 0 4 C0 2.68 0 1.36 0 0 Z " fill="#AAE0B7" transform="translate(280,193)"/>
<path d="M0 0 C0.33 1.98 0.66 3.96 1 6 C-0.65 6.33 -2.3 6.66 -4 7 C-4.33 5.35 -4.66 3.7 -5 2 C-2 0 -2 0 0 0 Z " fill="#ADE1B9" transform="translate(237,175)"/>
<path d="M0 0 C0 1.65 0 3.3 0 5 C-2.31 5.33 -4.62 5.66 -7 6 C-7.33 4.68 -7.66 3.36 -8 2 C-1.12 0 -1.12 0 0 0 Z " fill="#9DDCAC" transform="translate(264,192)"/>
<path d="M0 0 C0.66 0 1.32 0 2 0 C2.33 0.66 2.66 1.32 3 2 C3.99 2 4.98 2 6 2 C5.67 3.32 5.34 4.64 5 6 C3.68 6.33 2.36 6.66 1 7 C-0.06 4.62 -0.06 4.62 -1 2 C-0.67 1.34 -0.34 0.68 0 0 Z " fill="#ACE1B9" transform="translate(353,175)"/>
<path d="M0 0 C0.66 0 1.32 0 2 0 C2 0.66 2 1.32 2 2 C1.34 2 0.68 2 0 2 C0 2.66 0 3.32 0 4 C1.32 4 2.64 4 4 4 C4.33 3.01 4.66 2.02 5 1 C5.66 1 6.32 1 7 1 C7.66 2.65 8.32 4.3 9 6 C6.03 6 3.06 6 0 6 C-0.38 4.34 -0.71 2.68 -1 1 C-0.67 0.67 -0.34 0.34 0 0 Z " fill="#93D8A3" transform="translate(279,176)"/>
<path d="M0 0 C0.33 1.98 0.66 3.96 1 6 C-1.08 6.55 -2.84 7 -5 7 C-5 3 -5 3 -3.62 1.25 C-2 0 -2 0 0 0 Z " fill="#C0E8C9" transform="translate(147,175)"/>
<path d="M0 0 C1.65 0 3.3 0 5 0 C5 2.31 5 4.62 5 7 C3.35 6.67 1.7 6.34 0 6 C0 4.02 0 2.04 0 0 Z " fill="#8DD69E" transform="translate(226,175)"/>
<path d="M0 0 C0 0.66 0 1.32 0 2 C0.66 2 1.32 2 2 2 C2 2.66 2 3.32 2 4 C-0.64 3.67 -3.28 3.34 -6 3 C-6 2.01 -6 1.02 -6 0 C-3.51 -1.25 -2.59 -0.78 0 0 Z " fill="#A9E0B6" transform="translate(179,194)"/>
<path d="M0 0 C2.88 -0.12 2.88 -0.12 6 0 C6.66 0.66 7.32 1.32 8 2 C7.01 2 6.02 2 5 2 C4.67 3.65 4.34 5.3 4 7 C3.34 7 2.68 7 2 7 C2 5.02 2 3.04 2 1 C1.34 0.67 0.68 0.34 0 0 Z " fill="#B0E2BC" transform="translate(324,175)"/>
<path d="M0 0 C1.95 -0.29 1.95 -0.29 4.12 -0.19 C5.4 -0.13 6.68 -0.06 8 0 C6.62 2 6.62 2 5 4 C4.34 4 3.68 4 3 4 C2.67 3.34 2.34 2.68 2 2 C1.67 2.66 1.34 3.32 1 4 C0.01 3.67 -0.98 3.34 -2 3 C-1.34 2.01 -0.68 1.02 0 0 Z " fill="#94D8A4" transform="translate(236,193)"/>
<path d="M0 0 C0.66 0.33 1.32 0.66 2 1 C1.34 2.32 0.68 3.64 0 5 C-0.66 5 -1.32 5 -2 5 C-2.99 5.33 -3.98 5.66 -5 6 C-5 4.68 -5 3.36 -5 2 C-2.62 0.94 -2.62 0.94 0 0 Z " fill="#BBE6C5" transform="translate(198,176)"/>
<path d="M0 0 C0 1.65 0 3.3 0 5 C-2.31 5 -4.62 5 -7 5 C-6.19 3.06 -6.19 3.06 -5 1 C-2 0 -2 0 0 0 Z " fill="#9BDBAA" transform="translate(279,192)"/>
<path d="M0 0 C0.99 0.33 1.98 0.66 3 1 C3 2.65 3 4.3 3 6 C1.68 5.67 0.36 5.34 -1 5 C-0.67 3.35 -0.34 1.7 0 0 Z " fill="#98DAA7" transform="translate(300,176)"/>
<path d="M0 0 C2.48 0.5 2.48 0.5 5 1 C4.34 2.32 3.68 3.64 3 5 C2.01 4.67 1.02 4.34 0 4 C0 2.68 0 1.36 0 0 Z " fill="#96D9A6" transform="translate(329,177)"/>
<path d="M0 0 C0 1.98 0 3.96 0 6 C-0.33 5.01 -0.66 4.02 -1 3 C-1.66 3 -2.32 3 -3 3 C-3.33 3.99 -3.66 4.98 -4 6 C-4.66 6 -5.32 6 -6 6 C-6 5.01 -6 4.02 -6 3 C-2.67 0 -2.67 0 0 0 Z " fill="#8BD59C" transform="translate(321,175)"/>
<path d="M0 0 C2.31 0.33 4.62 0.66 7 1 C6.01 1.5 6.01 1.5 5 2 C5 2.99 5 3.98 5 5 C3.35 5 1.7 5 0 5 C0 3.35 0 1.7 0 0 Z " fill="#91D8A2" transform="translate(194,192)"/>
<path d="M0 0 C0.66 0 1.32 0 2 0 C2 0.66 2 1.32 2 2 C2.99 2 3.98 2 5 2 C5 3.65 5 5.3 5 7 C3.06 6.31 3.06 6.31 1 5 C0.25 2.38 0.25 2.38 0 0 Z " fill="#B9E6C4" transform="translate(230,191)"/>
<path d="M0 0 C0.99 0.33 1.98 0.66 3 1 C3 2.32 3 3.64 3 5 C1.35 4.67 -0.3 4.34 -2 4 C-2 3.01 -2 2.02 -2 1 C-1.34 0.67 -0.68 0.34 0 0 Z " fill="#A6DFB3" transform="translate(246,193)"/>
<path d="M0 0 C0.6 0.35 1.2 0.7 1.81 1.06 C0.82 1.39 -0.17 1.72 -1.19 2.06 C-1.52 2.72 -1.85 3.38 -2.19 4.06 C-3.18 4.06 -4.17 4.06 -5.19 4.06 C-5.19 2.74 -5.19 1.42 -5.19 0.06 C-2.19 -0.94 -2.19 -0.94 0 0 Z " fill="#C2E9CB" transform="translate(340.1875,175.9375)"/>
<path d="M0 0 C1.98 0 3.96 0 6 0 C5.67 1.32 5.34 2.64 5 4 C3.35 4 1.7 4 0 4 C0 2.68 0 1.36 0 0 Z " fill="#93D8A3" transform="translate(280,193)"/>
<path d="M0 0 C0.99 0.33 1.98 0.66 3 1 C2.67 2.65 2.34 4.3 2 6 C1.01 5.67 0.02 5.34 -1 5 C-0.67 3.35 -0.34 1.7 0 0 Z " fill="#A6DFB4" transform="translate(220,176)"/>
</svg>
